<svg width="54" height="54" viewBox="0 0 54 54" fill="none" xmlns="http://www.w3.org/2000/svg">
<rect width="54" height="54" rx="5.4" fill="#0F6564"/>
<g clip-path="url(#clip0_14_701)">
<path d="M25.0791 19.0352H19.5879C19.4429 19.0352 19.3038 18.9775 19.2012 18.875C19.0986 18.7724 19.041 18.6333 19.041 18.4883C19.041 18.3432 19.0986 18.2041 19.2012 18.1016C19.3038 17.999 19.4429 17.9414 19.5879 17.9414H25.0791C25.2241 17.9414 25.3632 17.999 25.4658 18.1016C25.5683 18.2041 25.6259 18.3432 25.6259 18.4883C25.6259 18.6333 25.5683 18.7724 25.4658 18.875C25.3632 18.9775 25.2241 19.0352 25.0791 19.0352ZM29.3567 22.055H19.5879C19.4429 22.055 19.3038 21.9974 19.2012 21.8948C19.0986 21.7923 19.041 21.6532 19.041 21.5081C19.041 21.3631 19.0986 21.224 19.2012 21.1214C19.3038 21.0189 19.4429 20.9612 19.5879 20.9612H29.3567C29.5018 20.9612 29.6409 21.0189 29.7434 21.1214C29.846 21.224 29.9036 21.3631 29.9036 21.5081C29.9036 21.6532 29.846 21.7923 29.7434 21.8948C29.6409 21.9974 29.5018 22.055 29.3567 22.055ZM32.2174 25.0754H19.5879C19.4429 25.0754 19.3038 25.0178 19.2012 24.9152C19.0986 24.8127 19.041 24.6736 19.041 24.5285C19.041 24.3835 19.0986 24.2444 19.2012 24.1418C19.3038 24.0393 19.4429 23.9816 19.5879 23.9816H32.2174C32.3625 23.9816 32.5016 24.0393 32.6041 24.1418C32.7067 24.2444 32.7643 24.3835 32.7643 24.5285C32.7643 24.6736 32.7067 24.8127 32.6041 24.9152C32.5016 25.0178 32.3625 25.0754 32.2174 25.0754ZM32.2174 28.093H19.5879C19.4429 28.093 19.3038 28.0354 19.2012 27.9329C19.0986 27.8303 19.041 27.6912 19.041 27.5462C19.041 27.4011 19.0986 27.262 19.2012 27.1595C19.3038 27.0569 19.4429 26.9993 19.5879 26.9993H32.2174C32.3625 26.9993 32.5016 27.0569 32.6041 27.1595C32.7067 27.262 32.7643 27.4011 32.7643 27.5462C32.7643 27.6912 32.7067 27.8303 32.6041 27.9329C32.5016 28.0354 32.3625 28.093 32.2174 28.093ZM32.2174 31.1156H19.5879C19.4429 31.1156 19.3038 31.058 19.2012 30.9554C19.0986 30.8529 19.041 30.7138 19.041 30.5687C19.041 30.4237 19.0986 30.2846 19.2012 30.1821C19.3038 30.0795 19.4429 30.0219 19.5879 30.0219H32.2174C32.3625 30.0219 32.5016 30.0795 32.6041 30.1821C32.7067 30.2846 32.7643 30.4237 32.7643 30.5687C32.7643 30.7138 32.7067 30.8529 32.6041 30.9554C32.5016 31.058 32.3625 31.1156 32.2174 31.1156Z" fill="white"/>
<path d="M34.6875 25.6252C33.439 25.6252 32.2185 25.2549 31.1804 24.5613C30.1423 23.8677 29.3332 22.8818 28.8554 21.7283C28.3776 20.5748 28.2526 19.3056 28.4962 18.0811C28.7397 16.8565 29.341 15.7317 30.2238 14.8489C31.1066 13.9661 32.2314 13.3649 33.4559 13.1213C34.6805 12.8777 35.9497 13.0027 37.1032 13.4805C38.2567 13.9583 39.2425 14.7674 39.9362 15.8055C40.6298 16.8436 41 18.0641 41 19.3126C40.9982 20.9862 40.3325 22.5907 39.149 23.7742C37.9656 24.9576 36.3611 25.6233 34.6875 25.6252ZM34.6875 14.0938C33.6553 14.0938 32.6463 14.3998 31.788 14.9733C30.9298 15.5467 30.2609 16.3618 29.8659 17.3154C29.4709 18.269 29.3675 19.3184 29.5689 20.3307C29.7703 21.3431 30.2673 22.273 30.9972 23.0028C31.7271 23.7327 32.657 24.2298 33.6693 24.4311C34.6817 24.6325 35.731 24.5291 36.6846 24.1341C37.6382 23.7391 38.4533 23.0702 39.0268 22.212C39.6002 21.3538 39.9063 20.3448 39.9063 19.3126C39.9047 17.929 39.3543 16.6024 38.376 15.6241C37.3976 14.6457 36.0711 14.0953 34.6875 14.0938Z" fill="white"/>
<path d="M33.9109 21.6067C33.7659 21.6067 33.6268 21.5491 33.5243 21.4465L31.5828 19.5078C31.5306 19.4574 31.489 19.397 31.4603 19.3303C31.4316 19.2636 31.4165 19.1918 31.4159 19.1192C31.4153 19.0466 31.4291 18.9746 31.4566 18.9074C31.4841 18.8402 31.5247 18.7791 31.5761 18.7278C31.6274 18.6764 31.6885 18.6358 31.7557 18.6083C31.8229 18.5808 31.8949 18.567 31.9675 18.5676C32.0401 18.5682 32.1119 18.5833 32.1786 18.612C32.2453 18.6406 32.3057 18.6823 32.3561 18.7345L33.9109 20.2893L37.0188 17.1787C37.0692 17.1264 37.1296 17.0848 37.1963 17.0561C37.263 17.0275 37.3348 17.0124 37.4074 17.0117C37.48 17.0111 37.552 17.0249 37.6192 17.0524C37.6864 17.0799 37.7475 17.1205 37.7988 17.1719C37.8502 17.2232 37.8908 17.2843 37.9183 17.3515C37.9458 17.4187 37.9596 17.4907 37.959 17.5633C37.9584 17.636 37.9433 17.7077 37.9146 17.7744C37.886 17.8412 37.8443 17.9015 37.7921 17.952L34.2975 21.4465C34.195 21.5491 34.0559 21.6067 33.9109 21.6067Z" fill="white"/>
<path d="M36.2422 40.9996H15.5638C14.884 40.9988 14.2323 40.7285 13.7517 40.2479C13.2711 39.7672 13.0007 39.1155 13 38.4358V26.8497C13.0007 26.4475 13.0958 26.051 13.2774 25.6921C13.4591 25.3331 13.7224 25.0218 14.0462 24.7831L16.2484 23.1649C16.3653 23.0789 16.5116 23.043 16.655 23.0649C16.7984 23.0868 16.9273 23.1647 17.0132 23.2816C17.0992 23.3985 17.1352 23.5448 17.1133 23.6882C17.0914 23.8316 17.0134 23.9605 16.8965 24.0464L14.6953 25.6646C14.5094 25.8014 14.3581 25.9799 14.2537 26.1857C14.1492 26.3915 14.0944 26.6189 14.0938 26.8497V38.4358C14.0942 38.8256 14.2492 39.1992 14.5248 39.4748C14.8004 39.7504 15.174 39.9054 15.5638 39.9058H36.2422C36.6319 39.9054 37.0056 39.7504 37.2812 39.4748C37.5567 39.1992 37.7118 38.8256 37.7122 38.4358V26.8497C37.7115 26.6189 37.6567 26.3915 37.5523 26.1857C37.4478 25.9799 37.2965 25.8014 37.1106 25.6646L36.4062 25.1462C36.2964 25.058 36.2248 24.9307 36.2064 24.791C36.188 24.6513 36.2243 24.5099 36.3077 24.3962C36.3911 24.2826 36.5151 24.2056 36.6539 24.1812C36.7927 24.1567 36.9355 24.1868 37.0527 24.2652L37.7576 24.7836C38.0813 25.0224 38.3446 25.3337 38.5263 25.6926C38.708 26.0515 38.803 26.448 38.8037 26.8503V38.4358C38.803 39.1152 38.533 39.7665 38.0528 40.2471C37.5727 40.7277 36.9215 40.9983 36.2422 40.9996Z" fill="white"/>
<path d="M37.5725 40.4964C37.4561 40.4964 37.3427 40.4593 37.2488 40.3903L28.5054 33.9662C28.3885 33.8803 28.3105 33.7516 28.2885 33.6082C28.2666 33.4648 28.3025 33.3186 28.3883 33.2017C28.4742 33.0848 28.603 33.0068 28.7464 32.9848C28.8897 32.9629 29.036 32.9988 29.1529 33.0846L37.8968 39.5088C37.9898 39.577 38.0588 39.6729 38.0939 39.7827C38.1291 39.8925 38.1287 40.0106 38.0927 40.1202C38.0568 40.2297 37.9871 40.3251 37.8937 40.3927C37.8002 40.4602 37.6878 40.4966 37.5725 40.4964ZM14.233 40.4964C14.1177 40.4966 14.0053 40.4602 13.9119 40.3927C13.8185 40.3251 13.7488 40.2297 13.7128 40.1202C13.6769 40.0106 13.6764 39.8925 13.7116 39.7827C13.7468 39.6729 13.8158 39.577 13.9087 39.5088L22.6527 33.0846C22.7696 32.9988 22.9158 32.9629 23.0592 32.9848C23.2026 33.0068 23.3314 33.0848 23.4172 33.2017C23.5031 33.3186 23.539 33.4648 23.5171 33.6082C23.4951 33.7516 23.4171 33.8803 23.3002 33.9662L14.5562 40.3903C14.4626 40.4594 14.3493 40.4966 14.233 40.4964Z" fill="white"/>
<path d="M25.9013 35.8704C25.3107 35.8715 24.7379 35.6685 24.2799 35.2956L13.3943 26.4094C13.3365 26.3648 13.2882 26.309 13.2523 26.2454C13.2164 26.1818 13.1936 26.1116 13.1852 26.039C13.1769 25.9664 13.1832 25.8929 13.2037 25.8228C13.2242 25.7527 13.2586 25.6874 13.3048 25.6308C13.351 25.5742 13.4081 25.5274 13.4726 25.4932C13.5372 25.4591 13.6079 25.4382 13.6807 25.4318C13.7535 25.4254 13.8268 25.4337 13.8964 25.4561C13.9659 25.4785 14.0302 25.5146 14.0856 25.5623L24.9711 34.4479C25.2341 34.6611 25.5623 34.7774 25.9008 34.7774C26.2393 34.7774 26.5675 34.6611 26.8305 34.4479L37.7182 25.5623C37.7737 25.5161 37.8379 25.4813 37.9069 25.46C37.976 25.4387 38.0486 25.4313 38.1205 25.4382C38.1924 25.4451 38.2623 25.4662 38.326 25.5002C38.3897 25.5343 38.4461 25.5806 38.4918 25.6366C38.5375 25.6926 38.5716 25.7571 38.5923 25.8263C38.6129 25.8956 38.6196 25.9682 38.612 26.0401C38.6044 26.1119 38.5827 26.1816 38.548 26.245C38.5133 26.3084 38.4664 26.3643 38.41 26.4094L27.5272 35.2951C27.0682 35.6693 26.4936 35.8726 25.9013 35.8704Z" fill="white"/>
<path d="M35.231 28.8455C35.0859 28.8455 34.9468 28.7879 34.8443 28.6854C34.7417 28.5828 34.6841 28.4437 34.6841 28.2987V25.0519C34.6841 24.9068 34.7417 24.7677 34.8443 24.6652C34.9468 24.5626 35.0859 24.505 35.231 24.505C35.376 24.505 35.5151 24.5626 35.6177 24.6652C35.7202 24.7677 35.7778 24.9068 35.7778 25.0519V28.2987C35.7778 28.4437 35.7202 28.5828 35.6177 28.6854C35.5151 28.7879 35.376 28.8455 35.231 28.8455ZM16.5721 28.8455C16.4271 28.8455 16.288 28.7879 16.1854 28.6854C16.0829 28.5828 16.0253 28.4437 16.0253 28.2987V17.7571C16.0261 17.0773 16.2966 16.4257 16.7773 15.945C17.2581 15.4644 17.9098 15.1941 18.5896 15.1934H30.1587C30.3037 15.1934 30.4428 15.251 30.5454 15.3535C30.648 15.4561 30.7056 15.5952 30.7056 15.7402C30.7056 15.8853 30.648 16.0244 30.5454 16.1269C30.4428 16.2295 30.3037 16.2871 30.1587 16.2871H18.5896C18.1998 16.2875 17.8261 16.4425 17.5504 16.7181C17.2747 16.9937 17.1196 17.3673 17.119 17.7571V28.2987C17.119 28.4437 17.0614 28.5828 16.9588 28.6854C16.8563 28.7879 16.7172 28.8455 16.5721 28.8455Z" fill="white"/>
</g>
<defs>
<clipPath id="clip0_14_701">
<rect width="28" height="28" fill="white" transform="translate(13 13)"/>
</clipPath>
</defs>
</svg>
