<svg width="42" height="42" viewBox="0 0 42 42" fill="none" xmlns="http://www.w3.org/2000/svg">
<rect width="42" height="42" rx="3" fill="#0F6564"/>
<path d="M27.9987 24.5H25.6654V26.8333H27.9987M27.9987 19.8333H25.6654V22.1667H27.9987M30.332 29.1667H20.9987V26.8333H23.332V24.5H20.9987V22.1667H23.332V19.8333H20.9987V17.5H30.332M18.6654 15.1667H16.332V12.8333H18.6654M18.6654 19.8333H16.332V17.5H18.6654M18.6654 24.5H16.332V22.1667H18.6654M18.6654 29.1667H16.332V26.8333H18.6654M13.9987 15.1667H11.6654V12.8333H13.9987M13.9987 19.8333H11.6654V17.5H13.9987M13.9987 24.5H11.6654V22.1667H13.9987M13.9987 29.1667H11.6654V26.8333H13.9987M20.9987 15.1667V10.5H9.33203V31.5H32.6654V15.1667H20.9987Z" fill="white"/>
</svg>
