<svg width="25" height="25" viewBox="0 0 25 25" fill="none" xmlns="http://www.w3.org/2000/svg">
<path d="M6.003 19.873L6 17.75V7.246C6 6.38405 6.34241 5.5574 6.9519 4.9479C7.5614 4.33841 8.38805 3.996 9.25 3.996H17.866C17.7109 3.55721 17.4235 3.17733 17.0434 2.90869C16.6634 2.64004 16.2094 2.49586 15.744 2.496H9.25C7.99022 2.496 6.78204 2.99644 5.89124 3.88724C5.00045 4.77804 4.5 5.98622 4.5 7.246V17.75C4.5 18.73 5.127 19.565 6.003 19.873ZM18.25 22.5C18.5455 22.5 18.8381 22.4418 19.111 22.3287C19.384 22.2157 19.6321 22.0499 19.841 21.841C20.0499 21.6321 20.2157 21.384 20.3287 21.111C20.4418 20.8381 20.5 20.5455 20.5 20.25V7.25C20.5 6.95453 20.4418 6.66194 20.3287 6.38896C20.2157 6.11598 20.0499 5.86794 19.841 5.65901C19.6321 5.45008 19.384 5.28434 19.111 5.17127C18.8381 5.0582 18.5455 5 18.25 5H9.25C8.65326 5 8.08097 5.23705 7.65901 5.65901C7.23705 6.08097 7 6.65326 7 7.25V20.25C7 20.8467 7.23705 21.419 7.65901 21.841C8.08097 22.2629 8.65326 22.5 9.25 22.5H18.25Z" fill="white"/>
</svg>
