<svg width="200" height="86" viewBox="0 0 200 86" fill="none" xmlns="http://www.w3.org/2000/svg">
<path d="M134.27 31.6744V58.3911H125.103V38.7464H121.174V31.6744H134.27ZM125.103 21.1972H134.27V28.5312H125.103V21.1972ZM162.051 28.7931C161.038 28.7233 159.694 28.6185 158.017 28.4788C156.341 28.3391 154.892 28.2693 153.669 28.2693C152.447 28.2693 151.661 28.4439 151.312 28.7931C150.963 29.1424 150.788 29.5789 150.788 30.1028V32.7221H159.432V39.7942H150.788V58.3911H141.621V39.7942H137.954V32.7221H141.621V29.0551C141.621 26.6802 142.336 24.7769 143.768 23.345C145.2 21.9131 147.104 21.1972 149.478 21.1972C151.609 21.1972 153.861 21.267 156.236 21.4067C158.611 21.5464 160.549 21.6512 162.051 21.7211V28.7931ZM185.635 28.7931C184.622 28.7233 183.277 28.6185 181.601 28.4788C179.925 28.3391 178.475 28.2693 177.253 28.2693C176.031 28.2693 175.245 28.4439 174.896 28.7931C174.546 29.1424 174.372 29.5789 174.372 30.1028V32.7221H183.016V39.7942H174.372V58.3911H165.204V39.7942H161.537V32.7221H165.204V29.0551C165.204 26.6802 165.92 24.7769 167.352 23.345C168.784 21.9131 170.687 21.1972 173.062 21.1972C175.193 21.1972 177.445 21.267 179.82 21.4067C182.195 21.5464 184.133 21.6512 185.635 21.7211V28.7931ZM186.693 50.5332H196.122V58.3911H186.693V50.5332ZM187.74 47.3901L186.693 36.3891V21.7211H196.122V36.3891L195.074 47.3901H187.74Z" fill="#0F6564"/>
<rect width="117.434" height="86" rx="13.0964" fill="#0F6564"/>
<path d="M56.4404 57.6053C48.2682 58.4784 40.7596 58.915 33.9145 58.915C30.4919 58.915 27.9774 58.1117 26.3709 56.5052C24.7644 54.8987 23.9612 52.3842 23.9612 48.9617V32.1982C23.9612 28.5312 24.7819 25.877 26.4233 24.2356C28.0997 22.5592 30.7713 21.7211 34.4383 21.7211H53.2972V29.0551H36.5338C34.4383 29.0551 33.3906 30.1028 33.3906 32.1982V48.9617C33.3906 49.7649 33.6176 50.411 34.0716 50.8999C34.5606 51.354 35.2067 51.581 36.0099 51.581C40.0262 51.581 43.6932 51.4937 47.0109 51.319V43.7231H40.2008V37.4368H56.4404V57.6053ZM71.9044 36.651C70.5075 36.651 69.809 37.3495 69.809 38.7464V41.6277H78.7146V38.7464C78.7146 37.3495 78.0161 36.651 76.6191 36.651H71.9044ZM86.8344 57.8673C80.0941 58.5657 73.9824 58.915 68.4993 58.915C66.1245 58.915 64.2212 58.199 62.7893 56.7672C61.3574 55.3353 60.6415 53.4319 60.6415 51.0571V38.4845C60.6415 35.8652 61.3749 33.8222 62.8417 32.3554C64.3434 30.8536 66.4039 30.1028 69.0232 30.1028H79.5004C82.1196 30.1028 84.1627 30.8536 85.6295 32.3554C87.1312 33.8222 87.8821 35.8652 87.8821 38.4845V48.1759H69.809V50.2713C69.809 50.7952 69.9836 51.2317 70.3328 51.581C70.6821 51.9302 71.1186 52.1048 71.6425 52.1048C75.0999 52.1048 80.1639 51.8429 86.8344 51.319V57.8673ZM111.959 58.3911C108.571 58.7404 105.254 58.915 102.006 58.915C99.631 58.915 97.7276 58.199 96.2957 56.7672C94.8638 55.3353 94.1479 53.4319 94.1479 51.0571V37.6987H91.0048V30.6266H94.1479L95.1956 24.3403H103.315V30.6266H109.864V37.6987H103.315V49.7475C103.315 50.2713 103.49 50.7079 103.839 51.0571C104.189 51.4063 104.625 51.581 105.149 51.581H111.959V58.3911Z" fill="white"/>
</svg>
