<svg width="111" height="42" viewBox="0 0 111 42" fill="none" xmlns="http://www.w3.org/2000/svg">
<path d="M74.4776 15.9484V30.7129H69.4114V19.8567H67.2401V15.9484H74.4776ZM69.4114 10.1584H74.4776V14.2114H69.4114V10.1584ZM89.8301 14.3562C89.2704 14.3176 88.5274 14.2597 87.601 14.1825C86.6746 14.1053 85.8736 14.0667 85.1981 14.0667C84.5226 14.0667 84.0884 14.1632 83.8954 14.3562C83.7024 14.5492 83.6059 14.7904 83.6059 15.0799V16.5274H88.3826V20.4357H83.6059V30.7129H78.5397V20.4357H76.5132V16.5274H78.5397V14.5009C78.5397 13.1885 78.9353 12.1367 79.7266 11.3454C80.5179 10.5541 81.5698 10.1584 82.8821 10.1584C84.0594 10.1584 85.3043 10.197 86.6167 10.2742C87.9291 10.3514 89.0002 10.4093 89.8301 10.4479V14.3562ZM102.863 14.3562C102.304 14.3176 101.561 14.2597 100.634 14.1825C99.7077 14.1053 98.9068 14.0667 98.2313 14.0667C97.5558 14.0667 97.1215 14.1632 96.9285 14.3562C96.7355 14.5492 96.639 14.7904 96.639 15.0799V16.5274H101.416V20.4357H96.639V30.7129H91.5728V20.4357H89.5463V16.5274H91.5728V14.5009C91.5728 13.1885 91.9684 12.1367 92.7597 11.3454C93.551 10.5541 94.6029 10.1584 95.9153 10.1584C97.0926 10.1584 98.3374 10.197 99.6498 10.2742C100.962 10.3514 102.033 10.4093 102.863 10.4479V14.3562ZM103.448 26.3704H108.659V30.7129H103.448V26.3704ZM104.027 24.6334L103.448 18.5539V10.4479H108.659V18.5539L108.08 24.6334H104.027Z" fill="#0F6564"/>
<rect x="0.275391" width="64.8976" height="42" rx="7.23749" fill="#0F6564"/>
<path d="M31.6257 30.2786C27.1095 30.7611 22.96 31.0024 19.1772 31.0024C17.2858 31.0024 15.8962 30.5585 15.0084 29.6707C14.1206 28.7829 13.6767 27.3933 13.6767 25.5019V16.2379C13.6767 14.2114 14.1303 12.7446 15.0374 11.8375C15.9638 10.9111 17.4402 10.4479 19.4667 10.4479H29.8887V14.5009H20.6247C19.4667 14.5009 18.8877 15.0799 18.8877 16.2379V25.5019C18.8877 25.9458 19.0132 26.3028 19.2641 26.573C19.5343 26.8239 19.8913 26.9494 20.3352 26.9494C22.5547 26.9494 24.5812 26.9011 26.4147 26.8046V22.6069H22.6512V19.1329H31.6257V30.2786ZM40.1716 18.6987C39.3996 18.6987 39.0136 19.0847 39.0136 19.8567V21.4489H43.9351V19.8567C43.9351 19.0847 43.5491 18.6987 42.7771 18.6987H40.1716ZM48.4223 30.4234C44.6974 30.8094 41.3199 31.0024 38.2899 31.0024C36.9775 31.0024 35.9256 30.6067 35.1343 29.8154C34.343 29.0241 33.9474 27.9723 33.9474 26.6599V19.7119C33.9474 18.2644 34.3527 17.1354 35.1633 16.3248C35.9932 15.4949 37.1319 15.0799 38.5794 15.0799H44.3693C45.8168 15.0799 46.9459 15.4949 47.7565 16.3248C48.5864 17.1354 49.0013 18.2644 49.0013 19.7119V25.0677H39.0136V26.2256C39.0136 26.5151 39.1101 26.7564 39.3031 26.9494C39.4961 27.1424 39.7373 27.2389 40.0268 27.2389C41.9375 27.2389 44.736 27.0941 48.4223 26.8046V30.4234ZM62.307 30.7129C60.4349 30.9059 58.6014 31.0024 56.8065 31.0024C55.4941 31.0024 54.4423 30.6067 53.651 29.8154C52.8597 29.0241 52.464 27.9723 52.464 26.6599V19.2777H50.727V15.3694H52.464L53.043 11.8954H57.5303V15.3694H61.149V19.2777H57.5303V25.9361C57.5303 26.2256 57.6268 26.4669 57.8198 26.6599C58.0128 26.8529 58.254 26.9494 58.5435 26.9494H62.307V30.7129Z" fill="white"/>
</svg>
